<svg width="473" height="478" viewBox="0 0 473 478" fill="none" xmlns="http://www.w3.org/2000/svg">
<path d="M472.489 239.562C465.161 239.562 458.197 245.454 451.643 257.176C442.883 272.788 434.843 283.385 427.399 288.979C428.716 289.095 430.499 289.459 432.696 289.988C445.569 295.054 451.941 304.165 451.941 317.451C451.941 320.783 451.345 324.055 450.158 327.271C445.453 340.312 436.16 346.863 422.397 346.863C419.181 346.863 415.976 346.333 412.872 345.195C410.199 344.239 407.691 342.87 405.428 341.033C406.09 344.484 406.385 347.935 406.385 351.336C406.385 358.237 405.015 366.7 402.147 376.704C399.291 386.758 397.869 393.438 397.869 396.773C397.869 401.709 399.589 405.884 403.053 409.219C399.718 405.884 395.543 404.217 390.607 404.217C387.143 404.217 380.295 405.639 370.059 408.494C359.875 411.3 351.356 412.732 344.574 412.732C342.427 412.732 340.336 412.67 338.255 412.435C338.5 413.381 338.914 414.039 339.559 414.4C341.408 418.264 342.298 422.31 342.298 426.664C342.298 438.928 336.651 447.742 325.329 453.157C321.336 455.07 317.178 456.026 312.768 456.026C300.259 456.026 291.511 450.418 286.443 439.226C285.913 438.27 285.192 436.847 284.365 434.885C279.065 441.552 268.7 449.177 253.336 457.693C241.899 463.999 236.185 470.784 236.185 478C236.185 470.784 230.591 463.999 219.27 457.693C203.853 449.048 193.55 441.436 188.254 434.885C188.125 435.299 187.476 436.784 186.341 439.226C181.273 450.418 172.459 456.026 160.017 456.026C155.673 456.026 151.498 455.07 147.389 453.157C136.196 447.861 130.602 439.11 130.602 426.962C130.602 422.555 131.558 418.33 133.523 414.4C133.523 414.4 133.821 413.741 134.479 412.435C132.451 412.67 130.37 412.732 128.16 412.732C121.428 412.732 112.909 411.3 102.726 408.494C92.6086 405.639 85.757 404.217 82.3063 404.217C77.2412 404.217 73.0164 405.884 69.5657 409.219C73.0164 405.884 74.7467 401.646 74.7467 396.591C74.7467 393.375 73.3141 386.758 70.5219 376.704C67.7164 366.7 66.3467 358.353 66.3467 351.683C66.3467 348.001 66.6445 344.484 67.3028 341.033C64.6164 343.051 62.1219 344.484 59.859 345.195C56.7591 346.333 53.6061 346.863 50.3209 346.863C36.6871 346.863 27.4601 340.312 22.7556 327.271C21.5679 324.055 20.9724 320.72 20.9724 317.269C20.9724 304.049 27.3443 294.938 40.022 289.988C41.2097 289.754 42.9433 289.459 45.2029 288.979C37.759 283.385 29.723 272.788 21.1543 257.176C14.6534 245.454 7.75211 239.562 0.490234 239.562C7.75211 239.562 14.6534 233.72 21.1543 221.932C29.723 206.568 37.759 196.087 45.2029 190.426C44.0152 190.244 42.2849 189.884 40.022 189.288C27.3443 184.468 20.9724 175.357 20.9724 162.021C20.9724 158.57 21.5679 155.235 22.7556 152.019C27.5759 138.978 36.8029 132.477 50.3209 132.477C53.6061 132.477 56.7591 133.019 59.859 134.095C62.4693 135.038 64.9142 136.47 67.3028 138.435C66.6445 134.985 66.3467 131.405 66.3467 127.776C66.3467 120.99 67.7164 112.59 70.5219 102.586C73.3141 92.5846 74.7467 85.852 74.7467 82.5171C74.7467 77.3329 73.0164 73.0552 69.5657 69.5947C73.1322 73.0552 77.5389 74.7756 82.786 74.7756C86.2366 74.7756 93.0221 73.4059 103.09 70.6666C113.157 67.9272 121.491 66.5576 128.16 66.5576C130.37 66.5576 132.451 66.6733 134.479 66.852C134.168 65.9091 133.821 65.3169 133.523 65.0688C131.558 61.026 130.602 56.735 130.602 52.3283C130.602 40.1799 136.196 31.4293 147.389 26.1193C151.498 24.2203 155.739 23.2642 160.146 23.2642C172.526 23.2642 181.273 28.9248 186.341 40.1799C186.884 41.189 187.476 42.6215 188.254 44.5867C193.55 37.9699 203.853 30.3573 219.27 21.5968C230.591 15.1719 236.185 8.19456 236.185 0.816895C236.185 8.19456 241.899 15.1719 253.336 21.5968C268.7 30.2283 279.065 37.917 284.365 44.5867C284.895 43.5776 285.553 42.1451 286.443 40.1799C291.511 28.9248 300.209 23.2642 312.589 23.2642C316.996 23.2642 321.287 24.2203 325.329 26.1193C336.651 31.5484 342.298 40.3619 342.298 52.626C342.298 56.9666 341.408 61.0756 339.559 65.0688C338.798 65.4327 338.371 66.0249 338.255 66.852C340.336 66.6733 342.427 66.5576 344.574 66.5576C351.356 66.5576 359.809 67.9272 369.943 70.6666C380.06 73.4059 386.792 74.7756 390.127 74.7756C395.245 74.7756 399.589 73.0552 403.053 69.5947C399.589 73.0552 397.869 77.3329 397.869 82.4013C397.869 85.799 399.291 92.5845 402.147 102.652C405.015 112.706 406.385 121.169 406.385 127.954C406.385 131.471 406.09 134.985 405.428 138.435C407.509 136.589 410.017 135.167 413.054 134.095C416.025 133.019 419.181 132.477 422.397 132.477C436.097 132.477 445.324 138.978 450.158 152.019C451.345 155.235 451.941 158.507 451.941 161.839C451.941 175.294 445.569 184.468 432.696 189.288C431.988 189.652 430.205 190.013 427.399 190.426C434.843 196.087 442.883 206.568 451.643 221.932C458.197 233.72 465.161 239.562 472.489 239.562ZM323.248 53.6317C323.662 52.3282 323.91 51.0214 323.91 49.7676C323.91 45.0002 321.7 41.8473 317.293 40.1799C315.987 39.5844 314.617 39.2238 313.247 39.2238C306.875 39.2238 303.709 42.7373 303.709 49.7676C303.709 56.4372 307.057 59.7721 313.727 59.7721C318.547 59.7721 321.763 57.6911 323.248 53.6317ZM434.493 160.055C434.493 157.369 433.536 154.99 431.624 152.909C429.662 150.766 427.399 149.757 424.839 149.757C422.05 149.757 419.605 150.766 417.577 152.727C415.496 154.759 414.477 157.138 414.477 159.94C414.477 162.616 415.496 164.995 417.461 167.023C419.476 169.051 421.805 170.123 424.478 170.123C431.161 170.123 434.493 166.788 434.493 160.055ZM159.368 39.4058C156.447 39.4058 153.942 40.4115 151.861 42.4429C149.714 44.5205 148.709 46.9654 148.709 49.8867C148.709 51.1902 148.94 52.444 149.483 53.6317C151.084 57.6911 154.24 59.7721 158.892 59.7721C165.624 59.7721 169.009 56.3215 169.009 49.407C169.009 42.7373 165.793 39.4058 159.368 39.4058ZM433.834 315.486C432.233 311.427 429.196 309.346 424.66 309.346C421.983 309.346 419.605 310.355 417.577 312.32C415.496 314.348 414.477 316.674 414.477 319.35C414.477 322.09 415.549 324.415 417.643 326.496C419.724 328.524 422.165 329.533 424.958 329.533C427.581 329.533 429.791 328.524 431.69 326.381C433.536 324.3 434.493 321.908 434.493 319.235C434.493 317.928 434.314 316.674 433.834 315.486ZM418.172 239.562C418.172 188.759 400.545 145.105 365.238 108.726C329.505 71.9833 286.509 53.6317 236.185 53.6317C185.746 53.6317 142.813 71.9833 107.43 108.776C72.0603 145.581 54.3803 189.354 54.3803 240.207C54.3803 291.189 72.0603 334.83 107.43 371.222C142.813 407.667 185.746 425.708 236.185 425.529C286.562 425.294 329.62 406.893 365.238 370.266C400.545 333.758 418.172 290.167 418.172 239.562ZM48.0613 149.757C45.3848 149.757 43.0591 150.766 41.0443 152.909C39.0791 154.99 38.0568 157.432 38.0568 160.237C38.0568 162.914 39.0791 165.24 41.1601 167.202C43.1749 169.104 45.6165 170.123 48.422 170.123C49.7288 170.123 50.9297 169.878 52.1174 169.464C56.2297 167.499 58.2445 164.284 58.2445 159.758C58.2445 153.091 54.8567 149.757 48.0613 149.757ZM323.248 425.658C321.402 421.715 318.134 419.7 313.429 419.7C306.928 419.7 303.709 422.916 303.709 429.403C303.709 430.773 303.954 432.262 304.487 433.747C306.151 437.856 309.138 439.884 313.545 439.884C314.848 439.884 316.102 439.706 317.293 439.226C321.7 437.625 323.91 434.406 323.91 429.585C323.91 428.269 323.662 426.962 323.248 425.658ZM168.417 433.747C168.959 432.378 169.191 431.008 169.191 429.701C169.191 423.035 165.856 419.7 159.19 419.7C154.369 419.7 151.084 421.715 149.483 425.658C148.94 426.962 148.709 428.269 148.709 429.585C148.709 436.434 152.159 439.884 159.008 439.884C163.775 439.884 166.865 437.856 168.417 433.747ZM58.2445 319.35C58.2445 314.762 56.2297 311.609 52.1174 310.007C50.8636 309.462 49.56 309.167 48.24 309.167C41.4578 309.167 38.0568 312.499 38.0568 319.053C38.0568 321.858 39.0791 324.3 40.9781 326.381C42.9433 328.524 45.2691 329.533 47.9456 329.533C54.7939 329.533 58.2445 326.146 58.2445 319.35ZM410.613 239.562C410.613 288.023 393.578 329.715 359.512 364.605C325.449 399.512 284.365 417.192 236.185 417.606C188.072 418.032 146.975 400.637 112.859 365.446C78.9086 330.552 62.0061 288.748 62.0061 240.025C62.0061 191.498 78.9086 149.627 112.859 114.502C147.091 79.0003 188.187 61.3734 236.185 61.6711C284.365 62.0317 325.449 79.662 359.512 114.618C393.578 149.575 410.613 191.201 410.613 239.562ZM395.129 239.562C395.129 194.949 379.762 156.774 349.097 125.033C318.068 92.9451 280.435 76.8036 236.185 76.5588C192.052 76.3272 154.485 92.5184 123.34 125.162C92.6715 157.253 77.3074 195.544 77.3074 240.025C77.3074 284.87 92.6715 323.162 123.34 354.902C154.369 387.003 191.936 402.963 236.185 402.718C280.435 402.549 318.068 386.345 349.097 354.257C379.762 322.387 395.129 284.159 395.129 239.562Z" fill="#FF5D00"/>
</svg>
